<svg width="1819" height="336" viewBox="0 0 1819 336" fill="none" xmlns="http://www.w3.org/2000/svg">
<path d="M535.422 75.9922L609.641 24.8203H658.176L567.844 89.1758L664.23 159H611.398L535.422 103.238V159H498.996V24.8203H535.422V75.9922ZM689.324 159V24.8203H725.555V129.605H823.504V159H689.324ZM964.418 133.609H889.613L877.016 159H836.586L906.801 24.8203H947.23L1017.45 159H977.016L964.418 133.609ZM902.602 107.438H951.625L927.211 58.0234L902.602 107.438ZM1079.65 159H1043.42V24.8203H1134.24C1144 24.8203 1152.27 25.8294 1159.04 27.8477C1165.88 29.8659 1171.41 32.7305 1175.64 36.4414C1179.94 40.1523 1183.03 44.6445 1184.92 49.918C1186.88 55.1263 1187.85 60.9531 1187.85 67.3984C1187.85 73.0625 1187.04 78.0104 1185.41 82.2422C1183.85 86.474 1181.7 90.1198 1178.96 93.1797C1176.3 96.1745 1173.17 98.7135 1169.59 100.797C1166.01 102.88 1162.23 104.605 1158.26 105.973L1202.21 159H1159.82L1119.2 109.586H1079.65V159ZM1151.23 67.2031C1151.23 64.599 1150.87 62.3854 1150.16 60.5625C1149.51 58.7396 1148.33 57.2747 1146.64 56.168C1144.95 54.9961 1142.67 54.1497 1139.8 53.6289C1137.01 53.1081 1133.49 52.8477 1129.26 52.8477H1079.65V81.5586H1129.26C1133.49 81.5586 1137.01 81.2982 1139.8 80.7773C1142.67 80.2565 1144.95 79.4427 1146.64 78.3359C1148.33 77.1641 1149.51 75.6667 1150.16 73.8438C1150.87 72.0208 1151.23 69.8073 1151.23 67.2031Z" fill="black"/>
<path d="M506.16 224.84C509.232 221.597 513.072 218.867 517.68 216.648C522.373 214.429 527.408 213.32 532.784 213.32C538.16 213.32 542.939 214.472 547.12 216.776C551.301 219.08 554.544 222.365 556.848 226.632C559.152 230.899 560.304 235.891 560.304 241.608C560.304 244.083 560.048 246.685 559.536 249.416C558.256 256.499 555.653 262.856 551.728 268.488C547.888 274.035 543.152 278.387 537.52 281.544C531.973 284.616 526.128 286.152 519.984 286.152C514.608 286.152 510 285.085 506.16 282.952C502.405 280.733 499.461 278.003 497.328 274.76L489.648 318.536H475.056L493.36 214.472H507.952L506.16 224.84ZM544.688 249.416C545.029 247.795 545.2 246.045 545.2 244.168C545.2 238.451 543.493 234.013 540.08 230.856C536.752 227.613 532.528 225.992 527.408 225.992C523.739 225.992 520.069 226.931 516.4 228.808C512.816 230.685 509.701 233.416 507.056 237C504.411 240.584 502.661 244.808 501.808 249.672C501.467 251.293 501.296 253.043 501.296 254.92C501.296 260.637 502.96 265.16 506.288 268.488C509.701 271.816 513.925 273.48 518.96 273.48C522.715 273.48 526.384 272.541 529.968 270.664C533.637 268.701 536.795 265.885 539.44 262.216C542.085 258.547 543.835 254.28 544.688 249.416ZM591.246 226.888C594.147 222.621 597.561 219.293 601.486 216.904C605.497 214.515 609.934 213.32 614.798 213.32L612.11 228.424H608.398C602.766 228.424 598.243 229.832 594.83 232.648C591.417 235.464 589.027 240.328 587.662 247.24L581.006 285H566.414L578.83 214.472H593.422L591.246 226.888ZM657.267 213.32C666.056 213.32 673.054 215.795 678.259 220.744C683.55 225.693 686.195 232.349 686.195 240.712C686.195 242.675 685.982 245.021 685.555 247.752C685.214 249.629 684.616 251.933 683.763 254.664H629.875C629.79 255.261 629.747 256.157 629.747 257.352C629.747 262.387 631.283 266.397 634.355 269.384C637.512 272.371 641.608 273.864 646.643 273.864C654.579 273.864 660.68 270.579 664.947 264.008H680.691C677.448 270.493 672.67 275.827 666.355 280.008C660.04 284.104 652.744 286.152 644.467 286.152C638.579 286.152 633.416 285 628.979 282.696C624.542 280.392 621.086 277.107 618.611 272.84C616.136 268.488 614.899 263.411 614.899 257.608C614.899 255.133 615.155 252.488 615.667 249.672C616.947 242.419 619.55 236.061 623.475 230.6C627.4 225.053 632.264 220.787 638.067 217.8C643.955 214.813 650.355 213.32 657.267 213.32ZM670.963 244.168C671.134 242.632 671.219 241.523 671.219 240.84C671.219 236.147 669.64 232.435 666.483 229.704C663.411 226.973 659.4 225.608 654.451 225.608C649.246 225.608 644.552 227.272 640.371 230.6C636.19 233.928 633.331 238.451 631.795 244.168H670.963ZM790.027 213.32C797.451 213.32 803.382 215.325 807.819 219.336C812.256 223.347 814.475 229.021 814.475 236.36C814.475 238.323 814.262 240.669 813.835 243.4L806.411 285H791.947L798.987 245.576C799.328 243.187 799.499 241.48 799.499 240.456C799.499 235.763 798.176 232.179 795.531 229.704C792.971 227.229 789.387 225.992 784.779 225.992C779.232 225.992 774.539 227.699 770.699 231.112C766.944 234.44 764.555 239.261 763.531 245.576L756.491 285H742.027L749.067 245.576C749.408 243.187 749.579 241.48 749.579 240.456C749.579 235.763 748.256 232.179 745.611 229.704C743.051 227.229 739.467 225.992 734.859 225.992C729.312 225.992 724.619 227.699 720.779 231.112C717.024 234.44 714.635 239.261 713.611 245.576V245.192L706.571 285H691.979L704.395 214.472H718.987L717.579 222.664C720.395 219.763 723.766 217.501 727.691 215.88C731.702 214.173 735.84 213.32 740.107 213.32C745.739 213.32 750.56 214.515 754.571 216.904C758.667 219.293 761.526 222.749 763.147 227.272C765.963 223.005 769.846 219.635 774.795 217.16C779.744 214.6 784.822 213.32 790.027 213.32ZM845.203 205.128C842.899 205.128 841.022 204.403 839.571 202.952C838.12 201.501 837.395 199.667 837.395 197.448C837.395 194.461 838.504 191.901 840.723 189.768C843.027 187.549 845.63 186.44 848.531 186.44C850.835 186.44 852.67 187.165 854.035 188.616C855.486 190.067 856.211 191.901 856.211 194.12C856.211 197.107 855.102 199.709 852.883 201.928C850.664 204.061 848.104 205.128 845.203 205.128ZM850.707 214.472L838.291 285H823.699L836.115 214.472H850.707ZM932.457 214.472L920.041 285H905.449L906.857 276.68C904.041 279.581 900.628 281.885 896.617 283.592C892.692 285.213 888.638 286.024 884.457 286.024C877.033 286.024 871.102 284.019 866.665 280.008C862.228 275.997 860.009 270.323 860.009 262.984C860.009 261.021 860.222 258.675 860.649 255.944L867.945 214.472H882.409L875.497 253.768C875.156 256.157 874.985 257.864 874.985 258.888C874.985 263.581 876.265 267.165 878.825 269.64C881.47 272.115 885.097 273.352 889.705 273.352C895.081 273.352 899.646 271.773 903.401 268.616C907.156 265.373 909.63 260.723 910.825 254.664L917.865 214.472H932.457ZM1036.06 213.32C1043.49 213.32 1049.42 215.325 1053.85 219.336C1058.29 223.347 1060.51 229.021 1060.51 236.36C1060.51 238.323 1060.3 240.669 1059.87 243.4L1052.45 285H1037.98L1045.02 245.576C1045.36 243.187 1045.53 241.48 1045.53 240.456C1045.53 235.763 1044.21 232.179 1041.57 229.704C1039.01 227.229 1035.42 225.992 1030.81 225.992C1025.27 225.992 1020.57 227.699 1016.73 231.112C1012.98 234.44 1010.59 239.261 1009.57 245.576L1002.53 285H988.062L995.102 245.576C995.443 243.187 995.614 241.48 995.614 240.456C995.614 235.763 994.291 232.179 991.646 229.704C989.086 227.229 985.502 225.992 980.894 225.992C975.347 225.992 970.654 227.699 966.814 231.112C963.059 234.44 960.67 239.261 959.646 245.576V245.192L952.606 285H938.014L950.43 214.472H965.022L963.614 222.664C966.43 219.763 969.801 217.501 973.726 215.88C977.737 214.173 981.875 213.32 986.142 213.32C991.774 213.32 996.595 214.515 1000.61 216.904C1004.7 219.293 1007.56 222.749 1009.18 227.272C1012 223.005 1015.88 219.635 1020.83 217.16C1025.78 214.6 1030.86 213.32 1036.06 213.32ZM1194.65 215.496L1160.48 285H1154.97L1143.71 223.304L1110.56 285H1105.05L1095.58 215.496H1101.6L1109.28 277.704L1142.43 215.496H1148.06L1159.07 277.704L1188.76 215.496H1194.65ZM1211.62 200.008C1210.43 200.008 1209.45 199.667 1208.68 198.984C1207.91 198.216 1207.53 197.235 1207.53 196.04C1207.53 194.333 1208.13 192.925 1209.32 191.816C1210.51 190.621 1211.88 190.024 1213.42 190.024C1214.61 190.024 1215.59 190.408 1216.36 191.176C1217.21 191.944 1217.64 192.925 1217.64 194.12C1217.64 195.827 1217 197.235 1215.72 198.344C1214.53 199.453 1213.16 200.008 1211.62 200.008ZM1211.88 215.496L1199.46 285H1193.7L1206.12 215.496H1211.88ZM1263.2 214.088C1270.29 214.088 1275.96 216.008 1280.23 219.848C1284.49 223.603 1286.63 229.192 1286.63 236.616C1286.63 238.92 1286.37 241.48 1285.86 244.296L1278.69 285H1273.06L1280.23 244.68C1280.65 241.949 1280.87 239.688 1280.87 237.896C1280.87 231.752 1279.16 227.101 1275.75 223.944C1272.33 220.701 1267.56 219.08 1261.41 219.08C1254.24 219.08 1248.06 221.299 1242.85 225.736C1237.65 230.173 1234.06 236.701 1232.1 245.32L1225.06 285H1219.3L1231.72 215.496H1237.48L1234.92 230.088C1237.82 224.883 1241.74 220.915 1246.69 218.184C1251.73 215.453 1257.23 214.088 1263.2 214.088ZM1300.33 250.184C1301.61 243.016 1304.13 236.744 1307.88 231.368C1311.72 225.992 1316.46 221.853 1322.09 218.952C1327.72 216.051 1333.78 214.6 1340.26 214.6C1347.35 214.6 1353.15 216.392 1357.67 219.976C1362.28 223.475 1365.14 228.04 1366.25 233.672L1373.93 190.28H1379.56L1362.79 285H1357.16L1360.49 266.568C1357.5 272.285 1353.11 276.979 1347.3 280.648C1341.5 284.232 1334.93 286.024 1327.59 286.024C1319.06 286.024 1312.23 283.549 1307.11 278.6C1302.08 273.565 1299.56 266.781 1299.56 258.248C1299.56 255.688 1299.82 253 1300.33 250.184ZM1363.3 250.184C1363.73 247.624 1363.94 245.363 1363.94 243.4C1363.94 236.147 1361.77 230.387 1357.42 226.12C1353.06 221.768 1347.3 219.592 1340.14 219.592C1334.5 219.592 1329.3 220.829 1324.52 223.304C1319.83 225.693 1315.86 229.192 1312.62 233.8C1309.46 238.408 1307.33 243.869 1306.22 250.184C1305.79 253 1305.58 255.389 1305.58 257.352C1305.58 264.776 1307.67 270.579 1311.85 274.76C1316.12 278.856 1321.92 280.904 1329.26 280.904C1334.63 280.904 1339.71 279.667 1344.49 277.192C1349.35 274.632 1353.41 271.048 1356.65 266.44C1359.98 261.747 1362.2 256.328 1363.3 250.184ZM1413.33 286.024C1404.63 286.024 1397.63 283.507 1392.34 278.472C1387.14 273.437 1384.53 266.611 1384.53 257.992C1384.53 250.141 1386.28 242.888 1389.78 236.232C1393.37 229.576 1398.32 224.328 1404.63 220.488C1410.94 216.563 1417.98 214.6 1425.75 214.6C1431.38 214.6 1436.37 215.752 1440.73 218.056C1445.08 220.275 1448.45 223.517 1450.84 227.784C1453.31 231.965 1454.55 236.915 1454.55 242.632C1454.55 250.483 1452.76 257.736 1449.17 264.392C1445.59 271.048 1440.64 276.339 1434.33 280.264C1428.1 284.104 1421.1 286.024 1413.33 286.024ZM1414.1 281.032C1420.76 281.032 1426.69 279.283 1431.89 275.784C1437.18 272.285 1441.28 267.635 1444.18 261.832C1447.17 256.029 1448.66 249.715 1448.66 242.888C1448.66 235.293 1446.4 229.491 1441.88 225.48C1437.36 221.469 1431.68 219.464 1424.85 219.464C1418.11 219.464 1412.14 221.213 1406.93 224.712C1401.73 228.211 1397.68 232.904 1394.77 238.792C1391.87 244.595 1390.42 250.867 1390.42 257.608C1390.42 265.203 1392.64 271.005 1397.08 275.016C1401.6 279.027 1407.28 281.032 1414.1 281.032ZM1567 215.496L1532.83 285H1527.32L1516.06 223.304L1482.91 285H1477.4L1467.93 215.496H1473.95L1481.63 277.704L1514.78 215.496H1520.41L1531.42 277.704L1561.11 215.496H1567ZM1644.51 194.248C1637.86 194.248 1632.99 195.528 1629.92 198.088C1626.94 200.648 1624.93 204.829 1623.91 210.632L1623.01 215.496H1641.06L1640.16 220.616H1622.11L1610.72 285H1604.96L1616.23 220.616H1605.86L1606.75 215.496H1617.12L1618.02 210.632C1619.3 203.293 1622.07 197.875 1626.34 194.376C1630.69 190.877 1637.05 189.128 1645.41 189.128L1644.51 194.248ZM1660.16 200.008C1658.97 200.008 1657.99 199.667 1657.22 198.984C1656.45 198.216 1656.07 197.235 1656.07 196.04C1656.07 194.333 1656.67 192.925 1657.86 191.816C1659.05 190.621 1660.42 190.024 1661.96 190.024C1663.15 190.024 1664.13 190.408 1664.9 191.176C1665.75 191.944 1666.18 192.925 1666.18 194.12C1666.18 195.827 1665.54 197.235 1664.26 198.344C1663.07 199.453 1661.7 200.008 1660.16 200.008ZM1660.42 215.496L1648 285H1642.24L1654.66 215.496H1660.42ZM1690.37 190.28L1673.6 285H1667.84L1684.61 190.28H1690.37ZM1788.15 214.088C1794.98 214.088 1800.44 216.008 1804.54 219.848C1808.63 223.603 1810.68 229.192 1810.68 236.616C1810.68 238.92 1810.43 241.48 1809.91 244.296L1802.62 285H1796.99L1804.15 244.68C1804.58 242.547 1804.79 240.157 1804.79 237.512C1804.79 231.539 1803.17 226.973 1799.93 223.816C1796.77 220.659 1792.29 219.08 1786.49 219.08C1779.32 219.08 1773.09 221.555 1767.8 226.504C1762.6 231.453 1759.18 238.621 1757.56 248.008V247.88L1750.91 285H1745.27L1752.44 244.68C1752.87 242.547 1753.08 240.157 1753.08 237.512C1753.08 231.539 1751.46 226.973 1748.22 223.816C1745.06 220.659 1740.58 219.08 1734.78 219.08C1727.61 219.08 1721.38 221.555 1716.09 226.504C1710.88 231.453 1707.47 238.621 1705.85 248.008V247.752L1699.19 285H1693.43L1705.85 215.496H1711.61L1708.92 230.344C1711.91 224.968 1715.83 220.915 1720.7 218.184C1725.56 215.453 1730.81 214.088 1736.44 214.088C1742.76 214.088 1747.88 215.709 1751.8 218.952C1755.81 222.195 1758.12 227.016 1758.71 233.416C1761.53 227.101 1765.58 222.323 1770.87 219.08C1776.16 215.752 1781.92 214.088 1788.15 214.088Z" fill="black"/>
<path d="M411 26H432V121H411V26Z" fill="black"/>
<path d="M411 26H432V121H411V26Z" fill="black"/>
<path d="M411 26H432V121H411V26Z" fill="black"/>
<path d="M411 121H432V216H411V121Z" fill="#EB3439"/>
<path d="M411 216H432V311H411V216Z" fill="#FFDA2C"/>
<path d="M139.306 89.8672C146.458 90.2179 158.214 90.0028 165.547 89.9163L165.528 133.032C165.524 147.676 161.893 170.663 182.482 171.885C207.344 173.361 203.683 151.65 203.676 134.346C203.565 119.55 203.613 104.752 203.815 89.9568L230.41 89.9335C230.395 97.3922 230.423 104.851 230.493 112.31L230.354 139.785C230.167 159.853 231.134 179.185 210.982 189.894C198.643 196.449 179.618 196.996 166.424 193.201C132.828 183.534 139.316 148.736 138.875 121.68C138.835 112.957 138.079 93.989 139.306 89.8672Z" fill="black"/>
<path d="M238.493 89.7646C247.915 90.0378 258.173 89.8797 267.666 89.9116C275.536 113.997 284.075 138.727 291.511 162.893C298.403 139.243 307.306 113.58 314.997 90.0102C324.695 89.5234 335.006 90.2533 344.782 89.8197C341.956 97.6867 339.057 105.527 336.082 113.339L318.572 160.306C314.615 171.06 310.441 183.508 306.04 193.955C296.753 194.288 286.413 193.899 276.958 194.003C274.315 186.238 270.633 177.15 267.726 169.325L249.038 118.903C246.604 112.35 239.77 95.7365 238.493 89.7646Z" fill="black"/>
<path d="M114.077 59.0857C117.536 58.6976 119.975 59.5838 121.727 62.6466C122.664 64.2873 122.651 66.7053 122.651 68.5648C122.664 82.5531 122.616 96.5403 122.624 110.529L122.636 202.339C122.634 217.729 123.056 239.016 122.224 254.71C122.135 256.388 119.096 258.154 117.583 258.952C109.358 259.582 109.132 253.981 109.06 247.552C108.884 231.889 108.971 216.226 108.976 200.561L108.964 115.996L108.988 80.5129C108.995 76.1307 108.995 71.7258 109.074 67.3469C109.16 62.5199 109.999 61.4695 114.077 59.0857Z" fill="black"/>
<path d="M81.4402 116.315C82.8254 116.243 84.142 116.196 85.5139 116.234C92.2649 116.424 96.7635 124.664 90.7718 129.329C87.0094 132.259 82.6748 131.309 78.1796 132.483C74.321 133.503 70.7462 135.391 67.728 138.002C62.1056 142.695 58.6426 149.48 58.1403 156.786C57.2639 168.283 63.5439 179.395 74.3598 184.326C79.3866 186.889 87.7464 185.001 91.5834 189.568C94.9068 193.524 93.1424 198.296 89.5515 201.198C80.0942 204.089 65.9459 198.653 58.6056 192.594C49.99 185.484 43.8687 175.192 42.7376 164.004C41.4806 152.458 44.9202 140.891 52.2827 131.906C59.7954 122.781 69.6978 117.425 81.4402 116.315Z" fill="black"/>
<path d="M5.50342 151.547C10.0609 151.01 23.6669 150.687 28.0361 151.886C35.2947 153.877 35.5419 162.737 28.1531 166.549C24.3295 167.03 20.5879 166.83 16.5525 166.97C9.29414 167.227 -2.30423 167.236 0.401225 156.471C1.04051 153.928 3.28279 152.696 5.50342 151.547Z" fill="black"/>
<path d="M84.1522 211.08C93.8716 210.675 93.8117 220.524 93.4276 227.633C93.0148 235.268 95.3894 241.826 86.7095 244.616C74.5643 244.192 78.4261 232.457 77.7195 223.606C77.2302 217.48 77.977 213.415 84.1522 211.08Z" fill="black"/>
<path d="M28.5832 96.5428C29.3074 96.5143 31.9026 96.4039 32.6201 96.7696C38.7166 100.218 46.0725 107.529 49.7863 113.413C52.5758 117.833 49.2757 122.386 45.1633 124.327C38.0155 124.691 33.7889 117.967 28.8848 113.623C22.9783 108.391 19.2729 100.443 28.5832 96.5428Z" fill="black"/>
<path d="M84.5573 73.46C86.9463 73.543 91.6705 74.6137 92.1973 77.4519C93.6065 85.0423 93.6812 94.6669 92.5416 102.289C92.2014 104.564 88.7752 106.242 86.9795 107C81.9734 106.96 80.9586 106.088 78.1151 102.073C77.5049 96.2765 77.0217 81.361 79.3202 76.2155C81.2728 74.6692 82.1874 74.1014 84.5573 73.46Z" fill="black"/>
<path d="M41.3113 193.841C48.874 193.209 52.8165 198.13 49.6009 204.698C47.6232 208.74 36.1991 220.183 32.3639 221.529C26.2673 221.749 21.0523 219.027 23.5005 211.977C25.1635 207.19 30.8061 203.086 34.2032 199.382C36.156 197.254 38.6966 195.096 41.3113 193.841Z" fill="black"/>
<path d="M296 205.635C302.239 203.964 308.646 207.699 310.261 213.951C311.878 220.204 308.085 226.575 301.818 228.134C295.628 229.675 289.353 225.942 287.757 219.767C286.161 213.594 289.839 207.287 296 205.635ZM301.047 223.048C301.773 222.676 302.924 222.095 303.321 221.411C307.088 214.937 303.316 210.492 296.488 211.117C294.565 212.574 293.702 213.602 293.348 216.114C293.097 217.826 293.58 219.564 294.674 220.901C296.467 223.135 298.385 223.264 301.047 223.048Z" fill="black"/>
<path d="M187.529 205.574C193.8 204.122 200.055 208.05 201.472 214.327C202.889 220.606 198.927 226.838 192.64 228.219C186.401 229.59 180.227 225.666 178.821 219.438C177.416 213.209 181.307 207.015 187.529 205.574ZM192.134 222.972C197.53 220.119 197.395 213.515 191.475 211.114C191.073 210.952 188.328 211.079 187.683 211.097C181.952 215.395 183.87 223.923 192.134 222.972Z" fill="black"/>
<path d="M159.92 205.799C170.827 205.541 185.448 205.883 173.377 220.124C173.129 220.417 175.616 223.838 175.941 224.308C176.791 225.53 177.683 226.765 178.551 227.98L172.322 227.926C169.803 226.14 167.804 220.579 165.826 220.342C165.001 221.692 165.036 224.954 164.9 226.768C163.506 228.685 161.839 228.592 159.814 227.476C158.863 225.067 158.42 207.315 159.92 205.799ZM171.088 214.811C171.409 212.979 171.543 213.558 170.952 211.889C169.567 210.702 167.22 210.707 165.252 210.404C165.145 211.914 164.798 213.647 165.634 214.831C167.384 215.691 169.079 215.167 171.088 214.811Z" fill="black"/>
<path d="M313.408 205.724L318.842 205.962C321.871 210.6 323.985 215.215 326.834 219.877C326.718 216.108 324.99 208.527 327.77 206.03C329.236 205.891 329.746 205.785 331.221 206.154C332.901 208.207 332.195 224.28 332.188 227.996C330.212 227.918 327.986 227.989 325.99 228.008C323.432 223.531 320.927 218.954 318.417 214.443C318.424 218.941 318.475 223.439 318.572 227.935L312.843 227.989C312.919 224.677 312.323 207.185 313.408 205.724Z" fill="black"/>
<path d="M141.846 205.801C147.193 205.685 157.198 204.804 157.453 212.761C157.499 214.861 156.694 216.89 155.219 218.387C152.515 221.12 149.89 221.019 146.31 220.996C145.906 220.859 145.552 220.948 145.099 220.985C144.072 222.861 145.385 225.613 144.282 227.445C143.475 228.786 140.712 227.799 139.74 227.028C137.952 224.439 138.997 220.667 138.966 217.532C138.931 214.074 137.802 209.282 139.594 206.2C139.832 205.788 141.306 205.836 141.846 205.801ZM144.892 216.265L150.726 215.63C150.978 214.304 151.287 213.332 150.797 212.06C149.124 210.294 147.474 210.57 144.937 210.433C144.917 212.267 144.831 214.464 144.892 216.265Z" fill="black"/>
<path d="M226.91 205.794C230.341 205.824 234.971 204.751 237.165 207.534C237.352 209.431 237.498 208.721 236.775 210.33C233.698 212.754 229.266 209.3 226.539 212.08L226.585 212.94C229.182 215.398 232.398 213.267 236.1 214.534C236.758 215.84 236.355 215.182 236.34 216.619C236.29 221.421 230.106 217.363 226.794 220.038C226.685 221.28 226.599 221.459 227.04 222.577L227.979 222.759C231.006 222.774 234.25 222.926 237.293 223.013C237.081 224.715 237.137 226.496 237.149 228.217C233.478 227.82 225.446 228.027 221.348 228.029C220.718 222.119 221.162 211.845 221.32 205.826L226.91 205.794Z" fill="black"/>
<path d="M248.375 205.698C251.131 205.605 255.001 205.624 257.306 207.175C257.931 208.4 257.97 208.557 257.901 209.931C255.459 212.997 241.648 207.421 245.305 219.891C246.971 225.566 254.253 220.992 257.676 222.747C257.962 224.147 258.161 224.658 257.681 226.046C255.263 229.189 246.929 228.776 243.938 226.52C235.523 220.18 237.775 207.916 248.375 205.698Z" fill="black"/>
<path d="M262.014 205.795C265.697 205.858 273.958 205.232 276.978 206.247C277.528 207.444 277.345 209.721 276.574 210.799C275.379 211.56 272.758 211.123 271.215 211.001C271.481 215.259 271.311 220.947 271.302 225.31C271.334 226.462 271.382 226.55 270.828 227.512C269.475 228.316 267.127 227.934 265.455 227.826C265.533 222.239 265.503 216.648 265.366 211.062L259.332 211.431C259.478 209.632 259.185 208.731 259.484 206.804C260.483 205.663 260.134 206.002 262.014 205.795Z" fill="black"/>
<path d="M206.281 205.777C210.508 205.833 214.736 205.85 218.964 205.825C218.845 207.571 218.901 209.532 218.913 211.302L212.525 211.009C212.8 215.837 212.664 222.372 212.702 227.327C211.381 228.099 208.618 227.92 206.967 227.943L206.997 210.984C204.222 211.421 202.314 211.908 200.819 208.991C200.947 205.401 203.445 205.777 206.281 205.777Z" fill="black"/>
<path d="M279.883 205.781L285.227 205.803C285.535 209.33 285.844 225.567 284.648 228.189C283.119 227.92 281.25 228.011 279.674 228.03C279.421 224.315 279.072 208.969 279.883 205.781Z" fill="black"/>
</svg>
