<svg width="1821" height="336" viewBox="0 0 1821 336" fill="none" xmlns="http://www.w3.org/2000/svg">
<path d="M744.777 70.6211C744.777 77.3268 743.801 83.5117 741.848 89.1758C739.895 94.7747 736.737 99.625 732.375 103.727C728.078 107.763 722.479 110.921 715.578 113.199C708.677 115.478 700.279 116.617 690.383 116.617H630.227V159H593.996V24.8203H690.383C700.279 24.8203 708.677 25.9596 715.578 28.2383C722.479 30.4518 728.078 33.6094 732.375 37.7109C736.737 41.7474 739.895 46.5651 741.848 52.1641C743.801 57.763 744.777 63.9154 744.777 70.6211ZM708.156 71.207C708.156 68.082 707.701 65.4128 706.789 63.1992C705.943 60.9206 704.51 59.0651 702.492 57.6328C700.474 56.2005 697.837 55.1589 694.582 54.5078C691.327 53.7917 687.323 53.4336 682.57 53.4336H630.227V88.0039H682.57C687.323 88.0039 691.327 87.7435 694.582 87.2227C697.837 86.6367 700.474 85.6927 702.492 84.3906C704.51 83.0234 705.943 81.2656 706.789 79.1172C707.701 76.9688 708.156 74.332 708.156 71.207ZM929.637 70.6211C929.637 77.3268 928.66 83.5117 926.707 89.1758C924.754 94.7747 921.596 99.625 917.234 103.727C912.938 107.763 907.339 110.921 900.438 113.199C893.536 115.478 885.138 116.617 875.242 116.617H815.086V159H778.855V24.8203H875.242C885.138 24.8203 893.536 25.9596 900.438 28.2383C907.339 30.4518 912.938 33.6094 917.234 37.7109C921.596 41.7474 924.754 46.5651 926.707 52.1641C928.66 57.763 929.637 63.9154 929.637 70.6211ZM893.016 71.207C893.016 68.082 892.56 65.4128 891.648 63.1992C890.802 60.9206 889.37 59.0651 887.352 57.6328C885.333 56.2005 882.697 55.1589 879.441 54.5078C876.186 53.7917 872.182 53.4336 867.43 53.4336H815.086V88.0039H867.43C872.182 88.0039 876.186 87.7435 879.441 87.2227C882.697 86.6367 885.333 85.6927 887.352 84.3906C889.37 83.0234 890.802 81.2656 891.648 79.1172C892.56 76.9688 893.016 74.332 893.016 71.207ZM999.945 53.4336V76.7734H1087.15V105.387H999.945V159H963.715V24.8203H1091.94V53.4336H999.945Z" fill="black"/>
<path d="M601.16 224.84C604.232 221.597 608.072 218.867 612.68 216.648C617.373 214.429 622.408 213.32 627.784 213.32C633.16 213.32 637.939 214.472 642.12 216.776C646.301 219.08 649.544 222.365 651.848 226.632C654.152 230.899 655.304 235.891 655.304 241.608C655.304 244.083 655.048 246.685 654.536 249.416C653.256 256.499 650.653 262.856 646.728 268.488C642.888 274.035 638.152 278.387 632.52 281.544C626.973 284.616 621.128 286.152 614.984 286.152C609.608 286.152 605 285.085 601.16 282.952C597.405 280.733 594.461 278.003 592.328 274.76L584.648 318.536H570.056L588.36 214.472H602.952L601.16 224.84ZM639.688 249.416C640.029 247.795 640.2 246.045 640.2 244.168C640.2 238.451 638.493 234.013 635.08 230.856C631.752 227.613 627.528 225.992 622.408 225.992C618.739 225.992 615.069 226.931 611.4 228.808C607.816 230.685 604.701 233.416 602.056 237C599.411 240.584 597.661 244.808 596.808 249.672C596.467 251.293 596.296 253.043 596.296 254.92C596.296 260.637 597.96 265.16 601.288 268.488C604.701 271.816 608.925 273.48 613.96 273.48C617.715 273.48 621.384 272.541 624.968 270.664C628.637 268.701 631.795 265.885 634.44 262.216C637.085 258.547 638.835 254.28 639.688 249.416ZM662.822 249.416C664.102 242.333 666.662 236.061 670.502 230.6C674.427 225.139 679.206 220.915 684.838 217.928C690.47 214.856 696.358 213.32 702.502 213.32C708.049 213.32 712.699 214.429 716.454 216.648C720.209 218.781 723.025 221.469 724.902 224.712L726.694 214.472H741.414L728.998 285H714.278L716.198 274.504C713.126 277.832 709.243 280.605 704.55 282.824C699.942 285.043 694.907 286.152 689.446 286.152C684.155 286.152 679.419 284.957 675.238 282.568C671.142 280.179 667.899 276.808 665.51 272.456C663.206 268.019 662.054 262.941 662.054 257.224C662.054 254.664 662.31 252.061 662.822 249.416ZM720.55 249.672C720.891 248.051 721.062 246.301 721.062 244.424C721.062 238.707 719.355 234.227 715.942 230.984C712.614 227.656 708.433 225.992 703.398 225.992C699.643 225.992 695.974 226.931 692.39 228.808C688.806 230.6 685.691 233.288 683.046 236.872C680.401 240.371 678.651 244.552 677.798 249.416C677.457 251.037 677.286 252.787 677.286 254.664C677.286 260.467 678.95 265.075 682.278 268.488C685.691 271.816 689.915 273.48 694.95 273.48C698.705 273.48 702.374 272.541 705.958 270.664C709.542 268.787 712.657 266.056 715.302 262.472C717.947 258.803 719.697 254.536 720.55 249.672ZM768.388 205.128C766.084 205.128 764.207 204.403 762.756 202.952C761.305 201.501 760.58 199.667 760.58 197.448C760.58 194.461 761.689 191.901 763.908 189.768C766.212 187.549 768.815 186.44 771.716 186.44C774.02 186.44 775.855 187.165 777.22 188.616C778.671 190.067 779.396 191.901 779.396 194.12C779.396 197.107 778.287 199.709 776.068 201.928C773.849 204.061 771.289 205.128 768.388 205.128ZM773.892 214.472L761.476 285H746.884L759.3 214.472H773.892ZM827.61 213.32C835.034 213.32 840.922 215.325 845.274 219.336C849.711 223.261 851.93 228.936 851.93 236.36C851.93 238.237 851.717 240.584 851.29 243.4L843.866 285H829.402L836.442 245.576C836.783 243.187 836.954 241.48 836.954 240.456C836.954 235.763 835.631 232.179 832.986 229.704C830.426 227.229 826.842 225.992 822.234 225.992C816.687 225.992 811.994 227.699 808.154 231.112C804.399 234.44 802.01 239.261 800.986 245.576V245.192L793.946 285H779.354L791.77 214.472H806.362L804.954 222.664C807.855 219.763 811.269 217.501 815.194 215.88C819.205 214.173 823.343 213.32 827.61 213.32ZM881.679 265.416C881.508 266.611 881.423 267.379 881.423 267.72C881.423 269.512 881.978 270.835 883.087 271.688C884.196 272.456 886.031 272.84 888.591 272.84H897.551L895.375 285H883.855C878.223 285 873.914 283.891 870.927 281.672C867.94 279.368 866.447 275.741 866.447 270.792C866.447 268.915 866.618 267.123 866.959 265.416L873.871 226.376H865.551L867.599 214.472H876.047L879.119 196.936H893.839L890.767 214.472H907.791L905.743 226.376H888.591L881.679 265.416ZM944.142 233.8C947.129 228.253 951.523 223.688 957.326 220.104C963.129 216.435 969.657 214.6 976.91 214.6C985.529 214.6 992.355 217.075 997.39 222.024C1002.42 226.888 1004.94 233.587 1004.94 242.12C1004.94 244.68 1004.69 247.368 1004.17 250.184C1002.89 257.352 1000.33 263.667 996.494 269.128C992.739 274.504 988.046 278.685 982.414 281.672C976.867 284.573 970.851 286.024 964.366 286.024C957.113 286.024 951.225 284.232 946.702 280.648C942.179 276.979 939.363 272.371 938.254 266.824L929.294 317.768H923.662L941.71 215.496H947.342L944.142 233.8ZM998.286 250.184C998.713 248.051 998.926 245.619 998.926 242.888C998.926 235.549 996.793 229.832 992.526 225.736C988.259 221.64 982.499 219.592 975.246 219.592C969.87 219.592 964.793 220.872 960.014 223.432C955.235 225.907 951.182 229.491 947.854 234.184C944.526 238.792 942.307 244.125 941.198 250.184C940.771 252.915 940.558 255.176 940.558 256.968C940.558 264.307 942.734 270.152 947.086 274.504C951.523 278.771 957.283 280.904 964.366 280.904C969.998 280.904 975.161 279.667 979.854 277.192C984.633 274.717 988.601 271.176 991.758 266.568C995.001 261.96 997.177 256.499 998.286 250.184ZM1029.63 230.472C1032.36 225.181 1036.11 221.128 1040.89 218.312C1045.76 215.496 1051.52 214.088 1058.17 214.088L1057.02 220.104H1055.23C1048.4 220.104 1042.38 222.067 1037.18 225.992C1031.97 229.832 1028.6 236.147 1027.07 244.936L1019.9 285H1014.14L1026.56 215.496H1032.32L1029.63 230.472ZM1088.33 286.024C1079.63 286.024 1072.63 283.507 1067.34 278.472C1062.13 273.437 1059.53 266.611 1059.53 257.992C1059.53 250.141 1061.28 242.888 1064.78 236.232C1068.36 229.576 1073.31 224.328 1079.63 220.488C1085.94 216.563 1092.98 214.6 1100.75 214.6C1106.38 214.6 1111.37 215.752 1115.72 218.056C1120.07 220.275 1123.44 223.517 1125.83 227.784C1128.31 231.965 1129.55 236.915 1129.55 242.632C1129.55 250.483 1127.75 257.736 1124.17 264.392C1120.59 271.048 1115.64 276.339 1109.32 280.264C1103.09 284.104 1096.09 286.024 1088.33 286.024ZM1089.1 281.032C1095.75 281.032 1101.68 279.283 1106.89 275.784C1112.18 272.285 1116.28 267.635 1119.18 261.832C1122.16 256.029 1123.66 249.715 1123.66 242.888C1123.66 235.293 1121.4 229.491 1116.87 225.48C1112.35 221.469 1106.68 219.464 1099.85 219.464C1093.11 219.464 1087.13 221.213 1081.93 224.712C1076.72 228.211 1072.67 232.904 1069.77 238.792C1066.87 244.595 1065.42 250.867 1065.42 257.608C1065.42 265.203 1067.64 271.005 1072.07 275.016C1076.6 279.027 1082.27 281.032 1089.1 281.032ZM1150.73 266.44C1150.39 268.147 1150.22 269.853 1150.22 271.56C1150.22 274.632 1151.07 276.808 1152.78 278.088C1154.49 279.283 1157.3 279.88 1161.23 279.88H1168.91L1168.01 285H1159.31C1154.19 285 1150.39 284.019 1147.92 282.056C1145.53 280.093 1144.33 276.851 1144.33 272.328C1144.33 270.365 1144.5 268.403 1144.84 266.44L1153.04 220.488H1142.54L1143.44 215.496H1153.93L1157 197.832H1162.89L1159.82 215.496H1180.3L1179.4 220.488H1158.92L1150.73 266.44ZM1224.55 214.6C1230.44 214.6 1235.43 215.752 1239.52 218.056C1243.71 220.275 1246.82 223.304 1248.87 227.144C1251 230.899 1252.07 235.123 1252.07 239.816C1252.07 241.864 1251.9 243.741 1251.56 245.448C1251.04 248.52 1250.53 250.824 1250.02 252.36H1189.99C1189.65 255.091 1189.48 257.053 1189.48 258.248C1189.48 265.587 1191.69 271.219 1196.13 275.144C1200.57 279.069 1206.16 281.032 1212.9 281.032C1219.64 281.032 1225.61 279.368 1230.82 276.04C1236.11 272.627 1239.87 268.019 1242.08 262.216H1248.1C1245.37 269.299 1240.8 275.059 1234.4 279.496C1228.09 283.848 1220.62 286.024 1212 286.024C1203.47 286.024 1196.6 283.549 1191.4 278.6C1186.28 273.651 1183.72 266.909 1183.72 258.376C1183.72 255.731 1183.97 253 1184.48 250.184C1185.76 242.931 1188.32 236.616 1192.16 231.24C1196 225.864 1200.7 221.768 1206.24 218.952C1211.88 216.051 1217.98 214.6 1224.55 214.6ZM1245.41 247.88C1246.01 245.405 1246.31 242.888 1246.31 240.328C1246.31 233.587 1244.13 228.424 1239.78 224.84C1235.51 221.256 1230.09 219.464 1223.52 219.464C1218.66 219.464 1213.97 220.531 1209.44 222.664C1204.92 224.797 1201 227.997 1197.67 232.264C1194.34 236.531 1192.04 241.736 1190.76 247.88H1245.41ZM1263.2 250.184C1264.48 242.931 1267.04 236.616 1270.88 231.24C1274.72 225.864 1279.42 221.768 1284.96 218.952C1290.6 216.051 1296.65 214.6 1303.14 214.6C1311.84 214.6 1318.59 216.776 1323.36 221.128C1328.23 225.48 1330.7 231.325 1330.79 238.664H1324.77C1324.69 232.776 1322.6 228.125 1318.5 224.712C1314.49 221.213 1309.07 219.464 1302.24 219.464C1297.21 219.464 1292.39 220.616 1287.78 222.92C1283.17 225.139 1279.2 228.595 1275.88 233.288C1272.55 237.896 1270.29 243.528 1269.09 250.184C1268.58 252.829 1268.32 255.389 1268.32 257.864C1268.32 265.373 1270.46 271.133 1274.72 275.144C1279.08 279.069 1284.62 281.032 1291.36 281.032C1298.19 281.032 1304.21 279.325 1309.41 275.912C1314.7 272.499 1318.46 267.805 1320.68 261.832H1326.82C1324.09 269.171 1319.52 275.059 1313.12 279.496C1306.72 283.848 1299.17 286.024 1290.47 286.024C1281.93 286.024 1275.11 283.592 1269.99 278.728C1264.95 273.779 1262.44 267.037 1262.44 258.504C1262.44 255.859 1262.69 253.085 1263.2 250.184ZM1350.77 266.44C1350.43 268.147 1350.26 269.853 1350.26 271.56C1350.26 274.632 1351.11 276.808 1352.82 278.088C1354.52 279.283 1357.34 279.88 1361.26 279.88H1368.94L1368.05 285H1359.34C1354.22 285 1350.43 284.019 1347.95 282.056C1345.56 280.093 1344.37 276.851 1344.37 272.328C1344.37 270.365 1344.54 268.403 1344.88 266.44L1353.07 220.488H1342.58L1343.47 215.496H1353.97L1357.04 197.832H1362.93L1359.86 215.496H1380.34L1379.44 220.488H1358.96L1350.77 266.44ZM1399.88 200.008C1398.68 200.008 1397.7 199.667 1396.93 198.984C1396.17 198.216 1395.78 197.235 1395.78 196.04C1395.78 194.333 1396.38 192.925 1397.57 191.816C1398.77 190.621 1400.13 190.024 1401.67 190.024C1402.87 190.024 1403.85 190.408 1404.61 191.176C1405.47 191.944 1405.89 192.925 1405.89 194.12C1405.89 195.827 1405.25 197.235 1403.97 198.344C1402.78 199.453 1401.41 200.008 1399.88 200.008ZM1400.13 215.496L1387.72 285H1381.96L1394.37 215.496H1400.13ZM1438.27 286.024C1429.57 286.024 1422.57 283.507 1417.28 278.472C1412.08 273.437 1409.47 266.611 1409.47 257.992C1409.47 250.141 1411.22 242.888 1414.72 236.232C1418.31 229.576 1423.26 224.328 1429.57 220.488C1435.88 216.563 1442.92 214.6 1450.69 214.6C1456.32 214.6 1461.31 215.752 1465.67 218.056C1470.02 220.275 1473.39 223.517 1475.78 227.784C1478.25 231.965 1479.49 236.915 1479.49 242.632C1479.49 250.483 1477.7 257.736 1474.11 264.392C1470.53 271.048 1465.58 276.339 1459.27 280.264C1453.04 284.104 1446.04 286.024 1438.27 286.024ZM1439.04 281.032C1445.7 281.032 1451.63 279.283 1456.83 275.784C1462.12 272.285 1466.22 267.635 1469.12 261.832C1472.11 256.029 1473.6 249.715 1473.6 242.888C1473.6 235.293 1471.34 229.491 1466.82 225.48C1462.3 221.469 1456.62 219.464 1449.79 219.464C1443.05 219.464 1437.08 221.213 1431.87 224.712C1426.67 228.211 1422.62 232.904 1419.71 238.792C1416.81 244.595 1415.36 250.867 1415.36 257.608C1415.36 265.203 1417.58 271.005 1422.02 275.016C1426.54 279.027 1432.22 281.032 1439.04 281.032ZM1532.68 214.088C1539.76 214.088 1545.44 216.008 1549.7 219.848C1553.97 223.603 1556.1 229.192 1556.1 236.616C1556.1 238.92 1555.85 241.48 1555.33 244.296L1548.17 285H1542.53L1549.7 244.68C1550.13 241.949 1550.34 239.688 1550.34 237.896C1550.34 231.752 1548.64 227.101 1545.22 223.944C1541.81 220.701 1537.03 219.08 1530.89 219.08C1523.72 219.08 1517.53 221.299 1512.33 225.736C1507.12 230.173 1503.54 236.701 1501.57 245.32L1494.53 285H1488.77L1501.19 215.496H1506.95L1504.39 230.088C1507.29 224.883 1511.22 220.915 1516.17 218.184C1521.2 215.453 1526.7 214.088 1532.68 214.088ZM1645.7 194.248C1639.05 194.248 1634.18 195.528 1631.11 198.088C1628.13 200.648 1626.12 204.829 1625.1 210.632L1624.2 215.496H1642.25L1641.35 220.616H1623.3L1611.91 285H1606.15L1617.42 220.616H1607.05L1607.94 215.496H1618.31L1619.21 210.632C1620.49 203.293 1623.26 197.875 1627.53 194.376C1631.88 190.877 1638.24 189.128 1646.6 189.128L1645.7 194.248ZM1661.35 200.008C1660.16 200.008 1659.18 199.667 1658.41 198.984C1657.64 198.216 1657.26 197.235 1657.26 196.04C1657.26 194.333 1657.86 192.925 1659.05 191.816C1660.24 190.621 1661.61 190.024 1663.15 190.024C1664.34 190.024 1665.32 190.408 1666.09 191.176C1666.94 191.944 1667.37 192.925 1667.37 194.12C1667.37 195.827 1666.73 197.235 1665.45 198.344C1664.26 199.453 1662.89 200.008 1661.35 200.008ZM1661.61 215.496L1649.19 285H1643.43L1655.85 215.496H1661.61ZM1691.56 190.28L1674.79 285H1669.03L1685.8 190.28H1691.56ZM1789.34 214.088C1796.17 214.088 1801.63 216.008 1805.73 219.848C1809.82 223.603 1811.87 229.192 1811.87 236.616C1811.87 238.92 1811.62 241.48 1811.1 244.296L1803.81 285H1798.18L1805.34 244.68C1805.77 242.547 1805.98 240.157 1805.98 237.512C1805.98 231.539 1804.36 226.973 1801.12 223.816C1797.96 220.659 1793.48 219.08 1787.68 219.08C1780.51 219.08 1774.28 221.555 1768.99 226.504C1763.79 231.453 1760.37 238.621 1758.75 248.008V247.88L1752.1 285H1746.46L1753.63 244.68C1754.06 242.547 1754.27 240.157 1754.27 237.512C1754.27 231.539 1752.65 226.973 1749.41 223.816C1746.25 220.659 1741.77 219.08 1735.97 219.08C1728.8 219.08 1722.57 221.555 1717.28 226.504C1712.07 231.453 1708.66 238.621 1707.04 248.008V247.752L1700.38 285H1694.62L1707.04 215.496H1712.8L1710.11 230.344C1713.1 224.968 1717.02 220.915 1721.89 218.184C1726.75 215.453 1732 214.088 1737.63 214.088C1743.95 214.088 1749.07 215.709 1752.99 218.952C1757 222.195 1759.31 227.016 1759.9 233.416C1762.72 227.101 1766.77 222.323 1772.06 219.08C1777.35 215.752 1783.11 214.088 1789.34 214.088Z" fill="black"/>
<path d="M107.489 134.674C117.597 125.2 126.804 114.525 137.261 105.399C154.381 90.4558 176.266 88.3468 197.889 86.7376C221.581 85.0043 245.352 84.5674 269.092 85.4286C278.78 85.8309 288.447 86.6528 298.063 87.8958C314.112 89.9372 326.925 92.8979 339.688 103.688C353.475 115.344 365.403 129.479 378.724 141.603C387.447 143.278 396.066 143.836 401.413 152.478C410.473 167.118 410.299 188.66 410.476 205.387C410.525 210.028 410.605 215.883 409.969 220.362C409.621 222.801 407.948 226.799 407.745 229.393C406.8 241.475 406.947 256.141 396.069 264.062C394.986 264.8 392.415 265.72 391.096 265.743C382.948 265.888 373.612 266.425 365.59 265.368C357.621 264.315 353.459 253.415 350.555 247.157C346.471 248.46 334.941 249.618 330.09 250.305L283.721 256.825C280.949 266.545 276.428 283.941 263.537 284.581C253.866 285.058 242.367 285.373 232.765 284.116C224.234 282.432 220.47 269.972 216.384 264.488C186.991 263.785 156.905 264.249 127.405 263.779L93.3017 263.001C89.4185 262.943 81.4338 262.666 77.7907 263.128C67.0741 287.009 58.0495 280.357 35.1915 281.266C24.3777 281.699 18.4416 271.115 14.7632 262.523C-3.93223 262.442 3.57337 259.283 2.65499 245.986C1.71319 232.349 -1.27799 218.355 0.615977 204.512C0.974278 201.739 1.73724 199.035 2.8805 196.484C4.76959 192.26 8.0537 188.572 10.0657 184.844C13.3449 178.771 13.5068 175.992 17.8295 170.24L18.3695 170.957C14.8336 175.755 10.6465 184.788 12.6546 191.05C13.1296 192.532 15.4168 193.497 16.8363 194.009C32.5379 199.664 38.1742 180.634 38.189 168.752C38.1192 156.898 31.8331 160.636 25.0041 164.534L24.7648 163.78C39.3115 153.427 57.1569 150.972 74.4994 149.53C78.084 149.231 85.5841 148.37 89.0037 148.478C85.9377 140.824 88.0246 136.71 95.989 133.664C100.256 132.033 103.419 132.705 107.489 134.674ZM284.98 148.051C300.11 148.148 315.126 147.11 330.25 146.882C333.288 146.836 336.336 146.682 339.368 146.476C348.529 145.912 358.581 146.296 361.642 136.006C359.462 127.953 356.684 125.293 351.118 119.349C339.38 106.815 324.853 94.6658 306.523 95.9277C302.61 96.5532 299.601 98.5348 297.266 101.731C292.257 108.585 287.326 138.135 284.98 148.051ZM348.067 162.309C345.242 162.859 340.815 163.191 339.79 166.28C340.802 169.774 345.77 168.977 348.674 168.883C351.479 168.656 355.161 168.939 355.983 165.638C355.339 162.546 350.664 162.084 348.067 162.309ZM220.953 159.108C215.875 160.577 209.638 162.763 204.937 165.127C198.876 168.177 176.145 185.064 176.506 191.76C178.293 195.641 185.368 195.633 189.035 195.546C203.551 194.613 216.724 191.872 227.19 180.447C231.474 175.771 232.952 171.65 232.897 165.491C229.269 161.038 227.061 158.803 220.953 159.108ZM155.786 238.544C157.129 237.362 159.546 235.467 160.299 234.009L160.129 233.366C159.146 233.15 158.31 233.015 157.313 232.863C157.731 232.237 158.242 232.233 158.949 232.088C168.389 230.151 209.173 231.922 213.593 227.176C213.826 225.758 213.964 226.388 213.218 225.211C209.815 223.146 200.762 224.44 196.624 224.617C184.068 224.921 172.547 225.494 160.095 227.081C148.563 228.551 143.217 243.731 137.442 244.692C126.704 246.48 103.212 245.169 91.9596 245.086L71.3736 244.962C65.119 244.923 57.4608 245.647 52.0115 242.35C46.2108 238.838 42.0754 228.961 35.1877 227.07C27.671 225.009 12.1012 222.992 4.65032 223.519C3.5487 224.363 3.26489 224.449 2.79108 225.683C2.91492 226.476 2.97542 227.24 3.89003 227.71C10.5802 231.137 29.1208 229.668 35.3304 231.708L34.1447 232.85C34.2533 233.551 42.0776 242.119 43.4344 244.291C38.973 244.566 19.4775 244.387 17.4723 245.652C19.1092 249.829 83.9042 250.555 93.4683 250.709C116.807 251.083 140.329 251.012 163.673 250.176C170.231 249.931 190.151 248.542 195.571 246.257L195.964 246.09C191.236 245.76 152.451 246.114 151.134 245.149C151.236 243.074 154.298 240.177 155.786 238.544ZM390.213 185.721C385.793 187.965 383.175 192.347 381.809 197.069C377.088 213.392 375.921 232.935 383.586 248.557C385.029 251.496 387.575 255.172 390.988 255.706C410.643 247.781 403.126 185.638 390.213 185.721ZM262.338 191.377C258.838 192.307 255.921 195.403 254.293 198.564C245.688 215.264 244.82 235.956 249.486 253.954C251.108 260.212 255.942 272.27 263.65 272.703C285.5 275 281.667 190.623 262.338 191.377Z" fill="black"/>
<path d="M307.506 101.803C319.397 100.446 331.537 106.043 340.582 113.489C345.641 117.652 356.539 126.658 357.385 133.403C358.392 141.432 343.736 141.484 338.412 141.903C330.591 142.827 320.794 142.851 312.786 143.165C305.705 143.443 298.207 144.042 291.227 144.171C292.037 137.877 293.683 130.862 294.835 124.554C296.482 115.543 297.976 105.394 307.506 101.803Z" fill="black"/>
<path d="M263.212 215.471C269.723 216.799 270.609 228.689 270.169 233.749C269.622 240.041 268.5 246 264.306 247.155C256.434 246.611 257.148 230.02 257.99 224.501C258.612 220.429 259.871 217.812 263.212 215.471Z" fill="black"/>
<path d="M390.021 207.224C398.027 208.6 397.091 228.396 391.416 234.135C383.2 230.545 384.299 212.703 390.021 207.224Z" fill="black"/>
<path d="M24.7644 163.78L25.0038 164.535C22.3088 166.71 20.6168 168.215 18.3691 170.957L17.8291 170.241C20.0708 167.5 21.8821 165.806 24.7644 163.78Z" fill="#292129" fill-opacity="0.886275"/>
<path d="M506 26H527V121H506V26Z" fill="black"/>
<path d="M506 26H527V121H506V26Z" fill="black"/>
<path d="M506 26H527V121H506V26Z" fill="black"/>
<path d="M506 121H527V216H506V121Z" fill="#EB3439"/>
<path d="M506 216H527V311H506V216Z" fill="#FFDA2C"/>
</svg>
