<svg width="1454" height="336" viewBox="0 0 1454 336" fill="none" xmlns="http://www.w3.org/2000/svg">
<path d="M497.035 159H454.848L386.977 24.8203H427.406L476.234 125.797L524.965 24.8203H565.395L497.035 159ZM591.465 159V24.8203H627.695V159H591.465ZM748.98 54.0195V159H712.75V54.0195H655.816V24.8203H806.012V54.0195H748.98ZM870.266 159H834.035V24.8203H924.855C934.621 24.8203 942.889 25.8294 949.66 27.8477C956.496 29.8659 962.03 32.7305 966.262 36.4414C970.559 40.1523 973.651 44.6445 975.539 49.918C977.492 55.1263 978.469 60.9531 978.469 67.3984C978.469 73.0625 977.655 78.0104 976.027 82.2422C974.465 86.474 972.316 90.1198 969.582 93.1797C966.913 96.1745 963.788 98.7135 960.207 100.797C956.626 102.88 952.85 104.605 948.879 105.973L992.824 159H950.441L909.816 109.586H870.266V159ZM941.848 67.2031C941.848 64.599 941.49 62.3854 940.773 60.5625C940.122 58.7396 938.951 57.2747 937.258 56.168C935.565 54.9961 933.286 54.1497 930.422 53.6289C927.622 53.1081 924.107 52.8477 919.875 52.8477H870.266V81.5586H919.875C924.107 81.5586 927.622 81.2982 930.422 80.7773C933.286 80.2565 935.565 79.4427 937.258 78.3359C938.951 77.1641 940.122 75.6667 940.773 73.8438C941.49 72.0208 941.848 69.8073 941.848 67.2031ZM1130.61 133.609H1055.81L1043.21 159H1002.78L1073 24.8203H1113.43L1183.64 159H1143.21L1130.61 133.609ZM1068.8 107.438H1117.82L1093.41 58.0234L1068.8 107.438ZM1209.61 159V24.8203H1245.84V129.605H1343.79V159H1209.61Z" fill="black"/>
<path d="M390.352 249.416C391.632 242.333 394.192 236.061 398.032 230.6C401.957 225.139 406.736 220.915 412.368 217.928C418 214.856 423.888 213.32 430.032 213.32C435.579 213.32 440.229 214.429 443.984 216.648C447.739 218.781 450.555 221.469 452.432 224.712L454.224 214.472H468.944L456.528 285H441.808L443.728 274.504C440.656 277.832 436.773 280.605 432.08 282.824C427.472 285.043 422.437 286.152 416.976 286.152C411.685 286.152 406.949 284.957 402.768 282.568C398.672 280.179 395.429 276.808 393.04 272.456C390.736 268.019 389.584 262.941 389.584 257.224C389.584 254.664 389.84 252.061 390.352 249.416ZM448.08 249.672C448.421 248.051 448.592 246.301 448.592 244.424C448.592 238.707 446.885 234.227 443.472 230.984C440.144 227.656 435.963 225.992 430.928 225.992C427.173 225.992 423.504 226.931 419.92 228.808C416.336 230.6 413.221 233.288 410.576 236.872C407.931 240.371 406.181 244.552 405.328 249.416C404.987 251.037 404.816 252.787 404.816 254.664C404.816 260.467 406.48 265.075 409.808 268.488C413.221 271.816 417.445 273.48 422.48 273.48C426.235 273.48 429.904 272.541 433.488 270.664C437.072 268.787 440.187 266.056 442.832 262.472C445.477 258.803 447.227 254.536 448.08 249.672ZM499.246 226.888C502.147 222.621 505.561 219.293 509.486 216.904C513.497 214.515 517.934 213.32 522.798 213.32L520.11 228.424H516.398C510.766 228.424 506.243 229.832 502.83 232.648C499.417 235.464 497.027 240.328 495.662 247.24L489.006 285H474.414L486.83 214.472H501.422L499.246 226.888ZM523.667 249.416C524.947 242.333 527.507 236.061 531.347 230.6C535.272 225.139 540.051 220.915 545.683 217.928C551.315 214.856 557.246 213.32 563.475 213.32C568.936 213.32 573.587 214.429 577.427 216.648C581.267 218.867 584.04 221.555 585.747 224.712L587.539 214.472H602.259L583.955 318.536H569.235L576.915 274.76C574.099 277.832 570.302 280.52 565.523 282.824C560.83 285.043 555.71 286.152 550.163 286.152C544.872 286.152 540.179 284.957 536.083 282.568C531.987 280.179 528.744 276.808 526.355 272.456C524.051 268.019 522.899 262.941 522.899 257.224C522.899 254.664 523.155 252.061 523.667 249.416ZM581.395 249.672C581.736 248.051 581.907 246.301 581.907 244.424C581.907 238.707 580.2 234.227 576.787 230.984C573.459 227.656 569.278 225.992 564.243 225.992C560.488 225.992 556.819 226.931 553.235 228.808C549.651 230.6 546.536 233.288 543.891 236.872C541.246 240.371 539.496 244.552 538.643 249.416C538.302 251.037 538.131 252.787 538.131 254.664C538.131 260.467 539.795 265.075 543.123 268.488C546.536 271.816 550.76 273.48 555.795 273.48C559.55 273.48 563.219 272.541 566.803 270.664C570.387 268.787 573.502 266.056 576.147 262.472C578.792 258.803 580.542 254.536 581.395 249.672ZM684.017 214.472L671.601 285H657.009L658.417 276.68C655.601 279.581 652.188 281.885 648.177 283.592C644.252 285.213 640.198 286.024 636.017 286.024C628.593 286.024 622.662 284.019 618.225 280.008C613.788 275.997 611.569 270.323 611.569 262.984C611.569 261.021 611.782 258.675 612.209 255.944L619.505 214.472H633.969L627.057 253.768C626.716 256.157 626.545 257.864 626.545 258.888C626.545 263.581 627.825 267.165 630.385 269.64C633.03 272.115 636.657 273.352 641.265 273.352C646.641 273.352 651.206 271.773 654.961 268.616C658.716 265.373 661.19 260.723 662.385 254.664L669.425 214.472H684.017ZM711.078 205.128C708.774 205.128 706.897 204.403 705.446 202.952C703.995 201.501 703.27 199.667 703.27 197.448C703.27 194.461 704.379 191.901 706.598 189.768C708.902 187.549 711.505 186.44 714.406 186.44C716.71 186.44 718.545 187.165 719.91 188.616C721.361 190.067 722.086 191.901 722.086 194.12C722.086 197.107 720.977 199.709 718.758 201.928C716.539 204.061 713.979 205.128 711.078 205.128ZM716.582 214.472L704.166 285H689.574L701.99 214.472H716.582ZM742.524 265.416C742.353 266.611 742.268 267.379 742.268 267.72C742.268 269.512 742.823 270.835 743.932 271.688C745.041 272.456 746.876 272.84 749.436 272.84H758.396L756.22 285H744.7C739.068 285 734.759 283.891 731.772 281.672C728.785 279.368 727.292 275.741 727.292 270.792C727.292 268.915 727.463 267.123 727.804 265.416L734.716 226.376H726.396L728.444 214.472H736.892L739.964 196.936H754.684L751.612 214.472H768.636L766.588 226.376H749.436L742.524 265.416ZM811.397 213.32C820.186 213.32 827.184 215.795 832.389 220.744C837.68 225.693 840.325 232.349 840.325 240.712C840.325 242.675 840.112 245.021 839.685 247.752C839.344 249.629 838.746 251.933 837.893 254.664H784.005C783.92 255.261 783.877 256.157 783.877 257.352C783.877 262.387 785.413 266.397 788.485 269.384C791.642 272.371 795.738 273.864 800.773 273.864C808.709 273.864 814.81 270.579 819.077 264.008H834.821C831.578 270.493 826.8 275.827 820.485 280.008C814.17 284.104 806.874 286.152 798.597 286.152C792.709 286.152 787.546 285 783.109 282.696C778.672 280.392 775.216 277.107 772.741 272.84C770.266 268.488 769.029 263.411 769.029 257.608C769.029 255.133 769.285 252.488 769.797 249.672C771.077 242.419 773.68 236.061 777.605 230.6C781.53 225.053 786.394 220.787 792.197 217.8C798.085 214.813 804.485 213.32 811.397 213.32ZM825.093 244.168C825.264 242.632 825.349 241.523 825.349 240.84C825.349 236.147 823.77 232.435 820.613 229.704C817.541 226.973 813.53 225.608 808.581 225.608C803.376 225.608 798.682 227.272 794.501 230.6C790.32 233.928 787.461 238.451 785.925 244.168H825.093ZM847.517 249.672C848.797 242.419 851.357 236.061 855.197 230.6C859.122 225.053 863.944 220.787 869.661 217.8C875.464 214.813 881.736 213.32 888.477 213.32C897.01 213.32 903.709 215.368 908.573 219.464C913.437 223.475 916.21 229.235 916.893 236.744H901.149C900.466 233.245 898.888 230.515 896.413 228.552C893.938 226.589 890.568 225.608 886.301 225.608C880.328 225.608 875.208 227.741 870.941 232.008C866.674 236.189 863.858 242.077 862.493 249.672C862.066 252.403 861.853 254.621 861.853 256.328C861.853 261.96 863.261 266.312 866.077 269.384C868.893 272.371 872.818 273.864 877.853 273.864C886.301 273.864 892.53 270.152 896.541 262.728H912.285C908.957 269.896 904.093 275.613 897.693 279.88C891.378 284.061 884.04 286.152 875.677 286.152C866.802 286.152 859.762 283.635 854.557 278.6C849.352 273.48 846.749 266.568 846.749 257.864C846.749 255.219 847.005 252.488 847.517 249.672ZM942.059 265.416C941.888 266.611 941.803 267.379 941.803 267.72C941.803 269.512 942.358 270.835 943.467 271.688C944.576 272.456 946.411 272.84 948.971 272.84H957.931L955.755 285H944.235C938.603 285 934.294 283.891 931.307 281.672C928.32 279.368 926.827 275.741 926.827 270.792C926.827 268.915 926.998 267.123 927.339 265.416L934.251 226.376H925.931L927.979 214.472H936.427L939.499 196.936H954.219L951.147 214.472H968.171L966.123 226.376H948.971L942.059 265.416ZM1044.21 214.472L1031.8 285H1017.2L1018.61 276.68C1015.8 279.581 1012.38 281.885 1008.37 283.592C1004.45 285.213 1000.39 286.024 996.212 286.024C988.788 286.024 982.857 284.019 978.42 280.008C973.983 275.997 971.764 270.323 971.764 262.984C971.764 261.021 971.977 258.675 972.404 255.944L979.7 214.472H994.164L987.252 253.768C986.911 256.157 986.74 257.864 986.74 258.888C986.74 263.581 988.02 267.165 990.58 269.64C993.225 272.115 996.852 273.352 1001.46 273.352C1006.84 273.352 1011.4 271.773 1015.16 268.616C1018.91 265.373 1021.39 260.723 1022.58 254.664L1029.62 214.472H1044.21ZM1074.6 226.888C1077.5 222.621 1080.92 219.293 1084.84 216.904C1088.85 214.515 1093.29 213.32 1098.15 213.32L1095.47 228.424H1091.75C1086.12 228.424 1081.6 229.832 1078.19 232.648C1074.77 235.464 1072.38 240.328 1071.02 247.24L1064.36 285H1049.77L1062.19 214.472H1076.78L1074.6 226.888ZM1099.02 249.416C1100.3 242.333 1102.86 236.061 1106.7 230.6C1110.63 225.139 1115.41 220.915 1121.04 217.928C1126.67 214.856 1132.56 213.32 1138.7 213.32C1144.25 213.32 1148.9 214.429 1152.65 216.648C1156.41 218.781 1159.22 221.469 1161.1 224.712L1162.89 214.472H1177.61L1165.2 285H1150.48L1152.4 274.504C1149.33 277.832 1145.44 280.605 1140.75 282.824C1136.14 285.043 1131.11 286.152 1125.65 286.152C1120.36 286.152 1115.62 284.957 1111.44 282.568C1107.34 280.179 1104.1 276.808 1101.71 272.456C1099.41 268.019 1098.25 262.941 1098.25 257.224C1098.25 254.664 1098.51 252.061 1099.02 249.416ZM1156.75 249.672C1157.09 248.051 1157.26 246.301 1157.26 244.424C1157.26 238.707 1155.56 234.227 1152.14 230.984C1148.81 227.656 1144.63 225.992 1139.6 225.992C1135.84 225.992 1132.17 226.931 1128.59 228.808C1125.01 230.6 1121.89 233.288 1119.25 236.872C1116.6 240.371 1114.85 244.552 1114 249.416C1113.66 251.037 1113.49 252.787 1113.49 254.664C1113.49 260.467 1115.15 265.075 1118.48 268.488C1121.89 271.816 1126.12 273.48 1131.15 273.48C1134.9 273.48 1138.57 272.541 1142.16 270.664C1145.74 268.787 1148.86 266.056 1151.5 262.472C1154.15 258.803 1155.9 254.536 1156.75 249.672ZM1214.44 190.28L1197.68 285H1183.08L1199.85 190.28H1214.44ZM1279.54 194.248C1272.89 194.248 1268.02 195.528 1264.95 198.088C1261.97 200.648 1259.96 204.829 1258.94 210.632L1258.04 215.496H1276.09L1275.19 220.616H1257.14L1245.75 285H1239.99L1251.26 220.616H1240.89L1241.78 215.496H1252.15L1253.05 210.632C1254.33 203.293 1257.1 197.875 1261.37 194.376C1265.72 190.877 1272.08 189.128 1280.44 189.128L1279.54 194.248ZM1295.19 200.008C1294 200.008 1293.02 199.667 1292.25 198.984C1291.48 198.216 1291.1 197.235 1291.1 196.04C1291.1 194.333 1291.7 192.925 1292.89 191.816C1294.08 190.621 1295.45 190.024 1296.99 190.024C1298.18 190.024 1299.16 190.408 1299.93 191.176C1300.78 191.944 1301.21 192.925 1301.21 194.12C1301.21 195.827 1300.57 197.235 1299.29 198.344C1298.1 199.453 1296.73 200.008 1295.19 200.008ZM1295.45 215.496L1283.03 285H1277.27L1289.69 215.496H1295.45ZM1325.4 190.28L1308.63 285H1302.87L1319.64 190.28H1325.4ZM1423.18 214.088C1430.01 214.088 1435.47 216.008 1439.57 219.848C1443.66 223.603 1445.71 229.192 1445.71 236.616C1445.71 238.92 1445.46 241.48 1444.94 244.296L1437.65 285H1432.02L1439.18 244.68C1439.61 242.547 1439.82 240.157 1439.82 237.512C1439.82 231.539 1438.2 226.973 1434.96 223.816C1431.8 220.659 1427.32 219.08 1421.52 219.08C1414.35 219.08 1408.12 221.555 1402.83 226.504C1397.63 231.453 1394.21 238.621 1392.59 248.008V247.88L1385.94 285H1380.3L1387.47 244.68C1387.9 242.547 1388.11 240.157 1388.11 237.512C1388.11 231.539 1386.49 226.973 1383.25 223.816C1380.09 220.659 1375.61 219.08 1369.81 219.08C1362.64 219.08 1356.41 221.555 1351.12 226.504C1345.91 231.453 1342.5 238.621 1340.88 248.008V247.752L1334.22 285H1328.46L1340.88 215.496H1346.64L1343.95 230.344C1346.94 224.968 1350.86 220.915 1355.73 218.184C1360.59 215.453 1365.84 214.088 1371.47 214.088C1377.79 214.088 1382.91 215.709 1386.83 218.952C1390.84 222.195 1393.15 227.016 1393.74 233.416C1396.56 227.101 1400.61 222.323 1405.9 219.08C1411.19 215.752 1416.95 214.088 1423.18 214.088Z" fill="black"/>
<path d="M319 26H340V121H319V26Z" fill="black"/>
<path d="M319 26H340V121H319V26Z" fill="black"/>
<path d="M319 26H340V121H319V26Z" fill="black"/>
<path d="M319 121H340V216H319V121Z" fill="#EB3439"/>
<path d="M319 216H340V311H319V216Z" fill="#FFDA2C"/>
<mask id="mask0_191_134" style="mask-type:luminance" maskUnits="userSpaceOnUse" x="0" y="36" width="192" height="265">
<path d="M191.596 36H0V301H191.596V36Z" fill="white"/>
</mask>
<g mask="url(#mask0_191_134)">
<path d="M60.2786 44.6201C62.2953 44.8505 168.915 108.223 176.9 113.246C177.117 116.969 176.957 122.129 176.946 125.931L176.712 154.003L176.13 245.473L176.067 270.318C176.045 274.621 175.807 281.31 176.194 285.425C177.212 286.334 177.4 285.159 178.939 286.191C179.391 287.676 179.191 292.002 179.169 293.783C174.506 293.974 168.654 293.826 163.897 293.826L130.866 293.797L63.369 293.767C46.5874 293.778 29.0456 294.066 12.3233 293.744C12.1967 292.065 12.102 288.072 12.5684 286.403C12.8848 285.271 13.3811 286.2 14.6128 285.598C14.2109 240.26 14.1269 194.919 14.3609 149.579L14.3479 107.654C14.3455 102.731 14.0631 90.5021 14.7094 86.0533C15.9868 84.5616 19.5128 81.5722 21.1097 80.1129C25.9933 75.6395 30.9004 71.192 35.8309 66.7704C43.1117 60.2025 52.9778 50.397 60.2786 44.6201ZM170.881 130.972C170.804 127.146 170.641 122.461 170.759 118.676L101.008 78.9893L80.8665 67.5796C78.377 66.1893 73.9354 63.5529 71.431 62.4279C70.8214 66.1111 71.3501 79.762 71.2606 84.2864C100.962 98.6143 131.161 112.115 160.925 126.333C164.171 127.884 167.586 129.554 170.881 130.972ZM71.2556 175.063C79.7107 176.648 89.6438 179.208 98.1126 181.223L138.332 190.731L159.911 195.794C162.472 196.395 168.684 197.703 170.801 198.54L170.75 186.246C165.021 184.837 158.035 182.546 152.303 180.831L116.914 170.174L86.2834 161.005C81.8469 159.671 75.4869 157.965 71.2245 156.413L71.2556 175.063ZM71.2133 144.404L141.344 166.519L161.318 172.818C163.843 173.63 168.671 175.06 170.822 176.069L170.765 163.905C164.864 162.032 157.509 158.966 151.602 156.715L119.59 144.639L87.5612 132.579C82.8658 130.804 75.6586 128.33 71.2369 126.311C71.2606 132.216 71.3302 138.51 71.2133 144.404ZM100.202 292.269L117.887 292.211C119.97 292.198 124.946 292.029 126.816 292.282C127.652 291.226 127.169 273.442 126.887 270.979L126.871 270.842C117.984 270.394 109.32 270.394 100.348 269.834C100.612 276.663 100.198 285.235 100.202 292.269ZM170.981 153.182C170.682 150.034 170.71 145.166 170.878 142.004C161.244 137.075 147.1 131.52 136.784 126.902L98.6314 110.05C89.6725 106.067 80.2332 101.659 71.2257 97.8803C71.2742 102.914 71.1287 108.479 71.273 113.439L149.302 144.626C153.462 146.263 167.463 152.623 170.981 153.182ZM71.2046 246.706L71.2357 261.865C91.7937 262.238 112.491 263.47 133.011 264.028C142.324 264.252 151.635 264.55 160.944 264.926C162.362 264.991 169.673 265.236 170.781 265.46L170.762 254.318C167.227 254.347 162.61 253.701 158.948 253.387L141.606 252.068L101.998 249.027C91.8509 248.217 81.3567 247.192 71.2046 246.706ZM128.823 292.273C132.943 291.896 138.352 292.215 142.592 292.17C144.682 292.147 149.697 292.062 151.593 292.269C151.879 285.657 151.403 278.678 151.75 271.836C145.651 271.649 134.374 271.826 128.827 270.651C128.776 277.645 128.605 285.322 128.823 292.273ZM175.45 229.253C175.462 221.476 176.169 211.035 175.352 203.7L174.74 203.12C174.696 210.178 174.538 217.33 174.884 224.37C174.956 225.863 174.861 227.709 175.041 229.145L175.45 229.253ZM71.2133 186.997L71.2879 203.547C77.5459 204.166 86.6841 206.012 93.0602 207.122L131.1 213.736L156.574 218.122C160.19 218.737 167.691 219.848 170.878 220.775L170.759 208.697C167.344 208.293 161.44 206.745 157.846 205.932L135.211 200.966C120.787 197.911 106.38 194.772 91.9915 191.551C86.0135 190.241 76.8293 188.656 71.2133 186.997ZM71.4447 215.776C70.8064 218.823 71.4658 229.93 71.2294 233.697C76.7011 233.836 83.5899 234.639 89.1449 235.174L116.413 237.829C134.37 239.633 152.823 240.968 170.669 243.094C170.983 240.553 170.751 233.758 170.695 230.954C167.135 230.879 156.681 228.797 152.576 228.167L112.063 222.053C99.6292 220.148 87.173 218.185 74.7118 216.443C73.597 216.288 72.5209 216.122 71.4447 215.776Z" fill="black"/>
<path d="M174.741 203.119L175.353 203.699C176.17 211.034 175.463 221.475 175.451 229.252L175.042 229.144C174.862 227.708 174.957 225.862 174.885 224.369C174.539 217.33 174.697 210.177 174.741 203.119Z" fill="black"/>
</g>
</svg>
