<svg width="198" height="39" viewBox="0 0 198 39" fill="none" xmlns="http://www.w3.org/2000/svg">
<path d="M55.58 30H50.78V8.56H55.58V17.072H60.924L66.62 8.56H72.38L64.924 19.12L72.284 30H66.524L60.988 21.744H55.58V30ZM86.1045 30H75.7685V8.56H86.1045C92.9845 8.56 97.3365 12.56 97.3365 19.28C97.3365 26 92.9845 30 86.1045 30ZM86.1045 12.88H80.5685V25.68H86.1045C90.4565 25.68 92.2165 24.432 92.2165 19.28C92.2165 14.128 90.4565 12.88 86.1045 12.88ZM119.483 30H101.339V8.56H119.483V12.88H106.139V17.072H119.003V21.36H106.139V25.68H119.483V30ZM134.547 30.32C127.475 30.32 123.091 25.968 123.091 19.28C123.091 12.592 127.475 8.24 134.547 8.24C141.203 8.24 145.491 11.568 145.491 17.008V17.488H140.147V17.008C140.147 14.192 138.547 12.848 134.643 12.848C129.939 12.848 128.179 14.512 128.179 19.28C128.179 24.048 129.939 25.712 134.643 25.712C138.547 25.712 140.147 24.368 140.147 21.552V21.072H145.491V21.552C145.491 26.992 141.235 30.32 134.547 30.32ZM160.531 30.32C153.427 30.32 149.011 25.968 149.011 19.28C149.011 12.592 153.427 8.24 160.531 8.24C167.795 8.24 172.179 12.592 172.179 19.28C172.179 25.968 167.795 30.32 160.531 30.32ZM160.531 25.712C165.235 25.712 167.059 24.048 167.059 19.28C167.059 14.512 165.235 12.848 160.531 12.848C155.827 12.848 154.099 14.512 154.099 19.28C154.099 24.048 155.827 25.712 160.531 25.712ZM180.992 30H176.192V8.56H188.032C193.312 8.56 196.32 10.896 196.32 14.992C196.32 18.48 194.304 20.56 190.272 20.944V21.2C192.192 21.712 192.928 22.736 193.728 24.24L196.833 30H191.264L188.32 24.432C187.456 22.768 186.656 22.224 184.16 22.224H180.992V30ZM180.992 12.88V18.608H188C190.272 18.608 191.296 17.968 191.296 15.728C191.296 13.616 190.272 12.88 188 12.88H180.992Z" fill="black"/>
<path d="M11.0713 7.18588C12.9856 5.42959 13.9428 4.55144 15.0303 4.21933C15.988 3.92689 17.012 3.92689 17.9697 4.21933C19.0572 4.55144 20.0144 5.42959 21.9287 7.18588L28.0717 12.8216C29.3348 13.9804 29.9663 14.5598 30.419 15.2497C30.8202 15.8612 31.1168 16.5344 31.2969 17.242C31.5 18.0403 31.5 18.8942 31.5 20.6019V27.0557C31.5 29.8365 31.5 31.2268 30.955 32.289C30.4757 33.2232 29.7108 33.9828 28.77 34.4588C27.7004 35 26.3003 35 23.5 35H9.5C6.69974 35 5.29961 35 4.23005 34.4588C3.28924 33.9828 2.52433 33.2232 2.04497 32.289C1.5 31.2268 1.5 29.8365 1.5 27.0557L1.5 20.6019C1.5 18.8942 1.5 18.0403 1.70312 17.242C1.88316 16.5344 2.17979 15.8612 2.58101 15.2497C3.03366 14.5598 3.66522 13.9804 4.92834 12.8216L11.0713 7.18588Z" stroke="black" stroke-width="3" stroke-linecap="round" stroke-linejoin="round"/>
<path d="M11.5 26.7247C11.5 25.1824 11.5 24.4112 11.7537 23.8029C12.092 22.9918 12.741 22.3474 13.5577 22.0115C14.1703 21.7595 14.9469 21.7595 16.5 21.7595C18.0531 21.7595 18.8297 21.7595 19.4423 22.0115C20.259 22.3474 20.908 22.9918 21.2463 23.8029C21.5 24.4112 21.5 25.1824 21.5 26.7247V35H11.5V26.7247Z" stroke="black" stroke-width="3" stroke-linecap="round" stroke-linejoin="round"/>
</svg>
